<svg width="22" height="20" viewBox="0 0 22 20" fill="none" xmlns="http://www.w3.org/2000/svg">
<path d="M11 11.5C10.6022 11.5 10.2206 11.342 9.93934 11.0607C9.65804 10.7794 9.5 10.3978 9.5 10C9.5 9.60218 9.65804 9.22064 9.93934 8.93934C10.2206 8.65804 10.6022 8.5 11 8.5C11.3978 8.5 11.7794 8.65804 12.0607 8.93934C12.342 9.22064 12.5 9.60218 12.5 10C12.5 10.3978 12.342 10.7794 12.0607 11.0607C11.7794 11.342 11.3978 11.5 11 11.5ZM10.472 14.494C10.647 14.704 10.823 14.908 11 15.103C11.177 14.908 11.353 14.705 11.528 14.494C11.176 14.5015 10.824 14.5015 10.472 14.494ZM8.477 14.369C7.70906 14.2891 6.9462 14.1662 6.192 14.001C6.117 14.351 6.06 14.691 6.022 15.017C5.832 16.6 6.097 17.562 6.5 17.794C6.903 18.027 7.868 17.775 9.145 16.82C9.408 16.623 9.673 16.404 9.939 16.165C9.4185 15.5941 8.9304 14.9945 8.477 14.369ZM15.808 14.001C15.091 14.161 14.325 14.285 13.523 14.369C13.0696 14.9945 12.5815 15.5941 12.061 16.165C12.327 16.405 12.592 16.623 12.855 16.82C14.132 17.775 15.097 18.027 15.5 17.794C15.903 17.562 16.167 16.6 15.979 15.017C15.9377 14.6759 15.881 14.3369 15.809 14.001H15.808ZM17.258 13.614C17.835 16.253 17.532 18.354 16.25 19.094C14.968 19.834 12.997 19.046 11 17.227C9.003 19.046 7.032 19.833 5.75 19.093C4.468 18.353 4.165 16.253 4.741 13.613C2.167 12.794 0.5 11.48 0.5 10C0.5 8.52 2.167 7.207 4.741 6.386C4.165 3.747 4.468 1.646 5.75 0.906C7.032 0.166 9.003 0.954 11 2.773C12.997 0.954 14.968 0.167 16.25 0.907C17.532 1.647 17.835 3.747 17.259 6.387C19.833 7.206 21.5 8.52 21.5 10C21.5 11.48 19.833 12.793 17.259 13.614H17.258ZM9.938 3.835C9.68369 3.60481 9.41909 3.38625 9.145 3.18C7.868 2.225 6.903 1.973 6.5 2.206C6.097 2.438 5.833 3.4 6.021 4.983C6.061 5.31 6.117 5.649 6.191 5.999C6.94553 5.83373 7.70872 5.71087 8.477 5.631C8.952 4.978 9.442 4.377 9.939 3.835H9.938ZM13.523 5.631C14.325 5.715 15.091 5.84 15.808 5.999C15.883 5.649 15.94 5.309 15.978 4.983C16.168 3.4 15.903 2.438 15.5 2.206C15.097 1.973 14.132 2.225 12.855 3.18C12.5806 3.38622 12.3156 3.60478 12.061 3.835C12.558 4.377 13.048 4.978 13.523 5.631ZM11.528 5.506C11.353 5.296 11.177 5.092 11 4.897C10.823 5.092 10.647 5.295 10.472 5.506C10.824 5.49853 11.176 5.49853 11.528 5.506ZM7.372 12.704C7.18956 12.4031 7.01352 12.0984 6.844 11.79C6.749 12.047 6.661 12.3 6.581 12.551C6.838 12.607 7.102 12.658 7.371 12.704H7.372ZM9.304 12.938C10.4331 13.0219 11.5669 13.0219 12.696 12.938C13.3332 12.002 13.9001 11.0199 14.392 10C13.9001 8.98008 13.3332 7.99805 12.696 7.062C11.5669 6.97814 10.4331 6.97814 9.304 7.062C8.6668 7.99805 8.09991 8.98008 7.608 10C8.09991 11.0199 8.6668 12.002 9.304 12.938ZM15.156 8.21C15.251 7.953 15.339 7.7 15.419 7.449C15.1568 7.39211 14.8934 7.3411 14.629 7.296C14.8111 7.59691 14.9868 7.90164 15.156 8.21ZM5.13 7.837C4.79 7.947 4.468 8.067 4.166 8.197C2.701 8.825 2 9.535 2 10C2 10.465 2.7 11.175 4.166 11.803C4.468 11.933 4.79 12.053 5.13 12.163C5.352 11.463 5.627 10.737 5.955 10C5.63982 9.29497 5.36439 8.57284 5.13 7.837ZM6.58 7.449C6.661 7.699 6.749 7.953 6.844 8.209C7.01353 7.90097 7.18957 7.59657 7.372 7.296C7.102 7.342 6.838 7.393 6.581 7.449H6.58ZM16.87 12.163C17.21 12.053 17.532 11.933 17.834 11.803C19.299 11.175 20 10.465 20 10C20 9.535 19.3 8.825 17.834 8.197C17.5183 8.0625 17.1966 7.94238 16.87 7.837C16.648 8.537 16.373 9.263 16.045 10C16.373 10.737 16.648 11.462 16.87 12.163ZM15.42 12.551C15.339 12.301 15.251 12.047 15.156 11.791C14.9865 12.099 14.8104 12.4034 14.628 12.704C14.898 12.658 15.162 12.607 15.419 12.551H15.42Z" fill="#607B96"/>
</svg>
